# xmcd
#
# Track frame offsets: 
#        150
#        14913
#        28725
#        42588
#        57138
#        70425
#        85175
#        98850
#        113425
#        125425
#        140063
#        154900
#        169563
#        182088
#        194813
#        208675
#        221500
#        235538
#        248713
#        263688
#        277050
#        290113
#        302275
#        316363
#
# Disc length: 4406 seconds
#
# Revision: 0
# Processed by: cddbd v1.5.1PL0 Copyright (c) Steve Scherf et al.
# Submitted via: ExactAudioCopy v0.95a5
#
DISCID=69113418
DTITLE=Various Artist - Clifford Hayes and the Louisville Jug Bands: Vol. 2 (
DTITLE=1926-1927)
DYEAR=1900
DGENRE=
TTITLE0=Dixieland Jug Blowers - Boodle-Am-Shake
TTITLE1=Dixieland Jug Blowers - Florida Blues
TTITLE2=Dixieland Jug Blowers - Don't Give All My Lard Away
TTITLE3=Dixieland Jug Blowers - Banjoreno
TTITLE4=Dixieland Jug Blowers - Skip, Skat, Doodle-Do
TTITLE5=Dixieland Jug Blowers - Louisville Stomp
TTITLE6=Dixieland Jug Blowers - House Rent Rag
TTITLE7=Dixieland Jug Blowers - Memphis Shake
TTITLE8=Dixieland Jug Blowers - Carpet Alley-Breakdown [take 1]
TTITLE9=Dixieland Jug Blowers - Carpet Alley-Breakdown [take 2]
TTITLE10=Dixieland Jug Blowers - Hen Party Blues [take 1]
TTITLE11=Dixieland Jug Blowers - Hen Party Blues [take 2]
TTITLE12=Earl McDonald's Original Louisville Jug Band - She's in the G
TTITLE12=raveyard Now
TTITLE13=Earl McDonald's Original Louisville Jug Band - Casey Bill
TTITLE14=Earl McDonald's Original Louisville Jug Band - Louisville Spe
TTITLE14=cial
TTITLE15=Earl McDonald's Original Louisville Jug Band - Rocking Chair 
TTITLE15=Blues
TTITLE16=Earl McDonald's Original Louisville Jug Band - Mama's Little 
TTITLE16=Sunny Boy
TTITLE17=Earl McDonald's Original Louisville Jug Band - She Won't Quit
TTITLE17=but She'll Slow Down
TTITLE18=Earl McDonald's Original Louisville Jug Band - Under the Chic
TTITLE18=ken Tree
TTITLE19=Earl McDonald's Original Louisville Jug Band - Melody March C
TTITLE19=all
TTITLE20=Whistler and His Jug Band - Low Down Blues
TTITLE21=Whistler and His Jug Band - The Vamps of "28"
TTITLE22=Whistler and His Jug Band - The Jug Band Special
TTITLE23=Whistler and His Jug Band - Pig Meat Blues
EXTD=
EXTT0=
EXTT1=
EXTT2=
EXTT3=
EXTT4=
EXTT5=
EXTT6=
EXTT7=
EXTT8=
EXTT9=
EXTT10=
EXTT11=
EXTT12=
EXTT13=
EXTT14=
EXTT15=
EXTT16=
EXTT17=
EXTT18=
EXTT19=
EXTT20=
EXTT21=
EXTT22=
EXTT23=
PLAYORDER=
